<svg width="99" height="105" viewBox="0 0 99 105" fill="none" xmlns="http://www.w3.org/2000/svg">
<path d="M36.9897 58.4536H42.2845L39.6187 41.9812L36.9897 58.4536Z" fill="white"/>
<path d="M18.973 53.9863H16.6382V66.1751H18.973C19.5287 66.2279 20.0881 66.1272 20.5906 65.8841C21.093 65.641 21.5191 65.2647 21.8226 64.7963C22.5063 63.3073 22.7975 61.6681 22.6683 60.0348C22.7889 58.4237 22.4913 56.8089 21.8042 55.3467C21.4985 54.8861 21.0741 54.5165 20.5758 54.277C20.0774 54.0376 19.5237 53.9371 18.973 53.9863Z" fill="white"/>
<path d="M73.5376 58.4354L78.8507 58.417L76.1849 41.9446L73.5376 58.4354Z" fill="white"/>
<path d="M96.2791 62.0386H94.4407V42.6063H96.2791V29.1489H94.4407V25.325L1.78329 25.4169V29.0938H0V42.5511H1.70975V62.057H0V75.5144H1.72813V79.0442L94.3855 78.9339V75.5144H96.224L96.2791 62.0386ZM27.117 65.9729C26.859 67.2009 26.3315 68.3562 25.5727 69.3556C24.8203 70.2129 23.8789 70.8834 22.8228 71.3141C21.7666 71.7449 20.6248 71.9241 19.4875 71.8375H11.7844V32.4949H19.5426C20.6597 32.3957 21.7843 32.5641 22.8234 32.9861C23.8624 33.4081 24.786 34.0716 25.5175 34.9216C26.2495 35.8525 26.7702 36.9315 27.0435 38.0837C27.4043 39.6948 27.5831 41.3414 27.5766 42.9924C27.7362 45.4183 27.0899 47.829 25.7382 49.8497C25.3051 50.4329 24.7457 50.9105 24.1019 51.247C24.7606 51.6002 25.3371 52.0889 25.7933 52.6809C27.2101 55.0876 27.8339 57.8789 27.5766 60.6598C27.6018 62.4417 27.4478 64.2217 27.117 65.9729ZM44.4719 71.8191L43.2033 64.0241H36.0334L34.8201 71.8191H29.6908L37.2652 32.4765H42.0084L49.6379 71.8191H44.4719ZM51.1638 71.8191V67.1679L59.5655 38.047H51.6602V32.5316H64.5292V37.1277L56.2563 66.1751H64.6395V71.6904L51.1638 71.8191ZM81.0201 71.8191L79.7699 64.0241H72.5816L71.3682 71.8191H66.1838L73.7582 32.4581H78.5014L86.039 71.8007L81.0201 71.8191Z" fill="white"/>
<path d="M21.7303 47.4597C22.3755 46.201 22.6618 44.789 22.5576 43.3784C22.668 41.9635 22.3882 40.5455 21.7487 39.2786C21.442 38.8596 21.0316 38.5274 20.5579 38.3147C20.0841 38.1019 19.5632 38.016 19.0462 38.0653H16.5459V48.7466H18.991C19.5214 48.8005 20.0564 48.7092 20.5389 48.4825C21.0214 48.2558 21.4332 47.9023 21.7303 47.4597Z" fill="white"/>
<path d="M74.9397 -8.53272e-05L14.2642 4.87109L15.8457 24.5709L76.5212 19.6998L74.9397 -8.53272e-05Z" fill="white"/>
<path d="M28.0913 89.2843L28.3855 92.6671C28.5567 94.5078 28.4763 96.3633 28.1465 98.1824L30.4629 97.9802L29.6908 89.0637L28.0913 89.2843Z" fill="white"/>
<path d="M74.953 89.7255C74.8427 88.4754 74.7324 87.5378 74.6405 86.9311C74.5999 86.4769 74.4753 86.0343 74.2728 85.6258C74.2211 85.5327 74.1515 85.4507 74.068 85.3845C73.9845 85.3184 73.8887 85.2694 73.7862 85.2404C73.6837 85.2113 73.5765 85.2028 73.4707 85.2153C73.3649 85.2278 73.2626 85.2611 73.1698 85.3132C72.9962 85.409 72.865 85.5665 72.8021 85.7545C72.5757 87.124 72.5757 88.5214 72.8021 89.891C72.8249 91.2822 73.0733 92.6606 73.5374 93.9723C73.6077 94.113 73.7194 94.229 73.8574 94.3045C73.9953 94.3801 74.1531 94.4117 74.3096 94.3951C74.4635 94.3868 74.6117 94.3336 74.7358 94.2422C74.86 94.1507 74.9546 94.025 75.0082 93.8804C75.1394 93.4396 75.1893 92.9786 75.1553 92.5199C75.1185 91.9132 75.045 90.9573 74.953 89.7255Z" fill="white"/>
<path d="M36.6213 91.5455C36.8958 90.6883 36.8232 89.7576 36.4191 88.9533C36.3083 88.8284 36.1672 88.734 36.0095 88.6793C35.8518 88.6246 35.6826 88.6113 35.5182 88.6408H34.7461L35.0402 92.0051H35.8124C35.9749 92.002 36.134 91.9584 36.2752 91.8781C36.4165 91.7978 36.5355 91.6835 36.6213 91.5455Z" fill="white"/>
<path d="M36.8605 94.0459C36.75 93.908 36.6052 93.8015 36.4407 93.737C36.2762 93.6725 36.0977 93.6522 35.9229 93.6782H35.1875L35.5184 97.539H36.2538C36.431 97.5398 36.6051 97.4924 36.7574 97.4017C36.9096 97.311 37.0343 97.1805 37.1179 97.0242C37.2943 96.536 37.3449 96.0112 37.2649 95.4983C37.2561 94.9876 37.1169 94.4877 36.8605 94.0459Z" fill="white"/>
<path d="M97.4375 78.9338L8.34668 86.6737L9.87258 104.231L99.0002 96.5093L97.4375 78.9338ZM18.072 100.995L17.6124 95.4798L15.774 95.6453L16.2152 101.105L14.7077 101.197L13.623 88.7695L15.1857 88.6408L15.6453 93.8804L17.4837 93.7149L17.0793 88.5121L18.6419 88.365L19.7082 100.793L18.072 100.995ZM21.2709 100.719L20.223 88.2363L24.3227 87.887L24.4698 89.7255L21.896 89.9461L22.1901 93.4575L24.3963 93.2737L24.5617 95.1121L22.3372 95.296L22.6681 98.9728L25.2419 98.7522L25.4074 100.591L21.2709 100.719ZM26.0509 100.352L25.9038 98.5132H26.5289C26.9297 96.5108 27.0289 94.4597 26.823 92.428L26.4185 87.7767L31.0146 87.3907L31.9339 98.0536H32.7612L32.9082 99.8921L26.0509 100.352ZM38.7913 97.3366C38.7315 97.7276 38.594 98.1027 38.3868 98.4397C38.1746 98.7298 37.8983 98.967 37.5794 99.1328C37.2606 99.2986 36.9077 99.3886 36.5484 99.3957L34.1216 99.5979L33.0921 87.0781L35.5372 86.8759C35.8883 86.8118 36.2495 86.8317 36.5914 86.9339C36.9333 87.0362 37.2461 87.2179 37.5043 87.4642C37.7561 87.7417 37.9499 88.0667 38.0743 88.4202C38.2239 88.9285 38.3103 89.4534 38.3316 89.9829C38.4598 90.7387 38.3303 91.5156 37.964 92.189C37.8454 92.3784 37.6889 92.5411 37.5043 92.667C37.7163 92.7677 37.9092 92.9046 38.0743 93.0714C38.5887 93.8078 38.847 94.6927 38.8096 95.5901C38.8663 96.1399 38.8725 96.6938 38.828 97.2447L38.7913 97.3366ZM44.1227 98.7338L43.4609 91.1227L41.9166 98.9177L40.5562 99.0464L39.4899 86.6185L41.0341 86.4898L41.696 94.101L43.2219 86.306L44.5823 86.1773L45.667 98.6051L44.1227 98.7338ZM48.2776 98.3661L46.5679 98.5316L48.4063 91.7478L45.667 86.0486L47.2848 85.9199L49.969 91.711L48.2776 98.3661ZM50.6676 98.1639L49.638 85.6441L51.2007 85.5155L52.267 97.9433L50.6676 98.1639ZM54.6018 97.833L51.6787 91.5639L53.3149 85.3316L54.9328 85.1845L53.3149 91.2514L56.3851 97.5756L54.6018 97.833ZM60.6687 97.2079L59.9885 89.5968L58.4809 97.4285L57.1389 97.5572L56.0542 85.1294L57.6169 85.0007L58.2603 92.6118L59.7862 84.8168L61.1651 84.6882L62.2314 97.116L60.6687 97.2079ZM68.8681 96.5093L68.2063 88.7511L67.3055 93.9539H66.4598L64.6213 89.0636L65.2648 96.7116L63.7205 96.8402L62.7829 84.5595L64.1801 84.4308L66.6436 90.7918L68.0224 84.0631L69.4197 83.9344L70.5043 96.3439L68.8681 96.5093ZM76.6447 93.1082C76.6471 93.7475 76.4958 94.378 76.2035 94.9467C75.9324 95.4704 75.466 95.8664 74.9051 96.0487C74.3442 96.2311 73.7341 96.1852 73.2068 95.921C72.8919 95.7619 72.6206 95.5285 72.4163 95.2408C72.0188 94.6987 71.76 94.0675 71.6626 93.4024C71.481 92.3005 71.3583 91.1897 71.2949 90.0748C71.1699 88.9085 71.1086 87.7363 71.111 86.5634C71.1087 85.9241 71.26 85.2935 71.5522 84.7249C71.6796 84.4613 71.8581 84.2257 72.0774 84.0318C72.2967 83.8379 72.5524 83.6895 72.8296 83.5954C73.1068 83.5013 73.3999 83.4633 73.6919 83.4836C73.984 83.504 74.269 83.5822 74.5305 83.7138C74.8475 83.8773 75.1239 84.1097 75.3394 84.394C75.7271 84.8914 75.9804 85.4802 76.0748 86.1038C76.2791 87.2657 76.4202 88.4379 76.4977 89.6152C76.6264 91.2514 76.6815 92.428 76.6631 93.1634L76.6447 93.1082ZM82.3623 94.6709C82.1961 94.9194 81.979 95.1298 81.7255 95.2883C81.472 95.4467 81.1877 95.5496 80.8915 95.5901C80.5081 95.6263 80.1219 95.5623 79.7706 95.4044C79.4193 95.2464 79.1151 95 78.8876 94.6893C78.5035 94.1416 78.2517 93.5123 78.1523 92.8508C77.9469 91.7014 77.8058 90.5413 77.7294 89.3762C77.6014 88.2103 77.5461 87.0375 77.5639 85.8648C77.5552 85.2269 77.7002 84.5963 77.9868 84.0263C78.1411 83.6923 78.3752 83.4015 78.6685 83.1793C78.9618 82.9571 79.3052 82.8105 79.6685 82.7524C80.0318 82.6943 80.4038 82.7264 80.7517 82.846C81.0997 82.9655 81.4128 83.1689 81.6637 83.438C82.2758 84.1535 82.6317 85.0528 82.6748 85.9934L81.1121 86.1221C81.0931 85.7098 80.9799 85.3073 80.7812 84.9455C80.7096 84.808 80.5964 84.6966 80.4578 84.6273C80.3191 84.5579 80.162 84.5342 80.0091 84.5595C79.857 84.5665 79.7106 84.6195 79.5891 84.7114C79.4677 84.8033 79.377 84.9298 79.3289 85.0742C79.2004 85.5158 79.1445 85.9752 79.1634 86.4347C79.1634 87.0414 79.1634 87.979 79.3472 89.2107C79.5311 90.4425 79.5495 91.3801 79.6598 92.0051C79.7002 92.4616 79.8314 92.9054 80.0458 93.3104C80.1157 93.4463 80.2252 93.5577 80.3598 93.63C80.4944 93.7022 80.6478 93.7318 80.7996 93.7149C80.9536 93.7066 81.1017 93.6534 81.2259 93.5619C81.35 93.4705 81.4447 93.3447 81.4982 93.2001C81.6234 92.796 81.6671 92.3711 81.6269 91.95L83.1712 91.8213C83.3045 92.7752 83.0961 93.7455 82.5829 94.5606L82.3623 94.6709ZM87.0135 94.9099L85.4692 95.057L84.55 84.394L82.9138 84.5411L82.73 82.721L87.5467 82.2982L87.7121 84.1366L86.0575 84.2837L87.0135 94.9099ZM94.0731 93.3656C93.8848 93.6883 93.617 93.9575 93.2952 94.1474C92.9734 94.3372 92.6083 94.4415 92.2347 94.4503L89.7712 94.6525L88.7049 82.2246L90.2492 82.096L90.672 86.9678H91.5912C91.9577 86.9031 92.3348 86.9371 92.6837 87.0663C93.0326 87.1956 93.3409 87.4154 93.5768 87.7032C94.0598 88.5776 94.3492 89.5455 94.4253 90.5416C94.5015 91.5376 94.3625 92.5383 94.018 93.4759L94.0731 93.3656Z" fill="white"/>
<path d="M92.5286 89.1187C92.4526 88.9651 92.3297 88.8395 92.1777 88.7602C92.0257 88.6809 91.8524 88.6519 91.6829 88.6775H90.8188L91.1681 92.7221H92.0322C92.2058 92.7152 92.373 92.655 92.5111 92.5497C92.6492 92.4445 92.7516 92.2992 92.8044 92.1338C92.9269 91.6286 92.958 91.1056 92.8963 90.5895C92.868 90.0804 92.7432 89.5813 92.5286 89.1187Z" fill="white"/>
</svg>
